# File created by Blade
# Date/Time:  Tue Jan 27 20:02:46 2015
#---------------------------------------------------------
:version 1.10
:name HOM
:units
  mass 1.0
  length 1.000000
  angle deg
:documentation
     Acclaim Skeleton File
:root
   axis xyz
   order TX TY TZ RX RY RZ
   position 0.000000 0.000000 0.000000
   orientation 0 0 0
:bonedata
   begin
      id 1
      name Spine_dum
      direction 0.000000 1.000000 0.000000
      length 6.116652
      axis 0.0 0.0 0.0 xyz
   end
   begin
      id 2
      name LeftUpLeg_dum
      direction 1.000000 0.000000 0.000000
      length 4.711765
      axis 0.0 0.0 0.0 xyz
   end
   begin
      id 3
      name RightUpLeg_dum
      direction -1.000000 0.000000 0.000000
      length 4.711765
      axis 0.0 0.0 0.0 xyz
   end
   begin
      id 4
      name Spine
      direction 0.000000 1.000000 0.000000
      length 0.000000
      axis 0.0 0.0 0.0 xyz
      dof rx ry rz
   end
   begin
      id 5
      name Spine_dum1
      direction 0.000000 1.000000 0.000000
      length 15.225563
      axis 0.0 0.0 0.0 xyz
   end
   begin
      id 6
      name Spine_dum2
      direction 0.000000 1.000000 0.000000
      length 8.977654
      axis 0.0 0.0 0.0 xyz
   end
   begin
      id 7
      name Spine_dum3
      direction 0.000000 1.000000 0.000000
      length 8.977654
      axis 0.0 0.0 0.0 xyz
   end
   begin
      id 8
      name Head
      direction 0.000000 1.000000 0.000000
      length 4.527550
      axis 0.0 0.0 0.0 xyz
      dof rx ry rz
   end
   begin
      id 9
      name LeftShoulder
      direction 1.000000 0.000000 0.000000
      length 7.110130
      axis 0.0 0.0 -90.0 xyz
      dof rx ry rz
   end
   begin
      id 10
      name LeftArm
      direction 1.000000 0.000000 0.000000
      length 10.398341
      axis 0.0 0.0 -90.0 xyz
      dof rx ry rz
   end
   begin
      id 11
      name LeftForeArm
      direction 1.000000 0.000000 0.000000
      length 8.888997
      axis 0.0 0.0 -90.0 xyz
      dof ry rz rx
   end
   begin
      id 12
      name LeftHand
      direction 0.000000 0.000000 0.000000
      length 0.000000
      axis 0.0 0.0 -90.0 xyz
      dof rx ry rz
   end
   begin
      id 13
      name LeftHand_dum1
      direction 0.000000 0.000000 0.000000
      length 0.000000
      axis 0.0 0.0 -90.0 xyz
   end
   begin
      id 14
      name LeftHand_dum2
      direction 1.000000 0.000000 0.000000
      length 3.937000
      axis 0.0 0.0 -90.0 xyz
   end
   begin
      id 15
      name LeftHandThumb1
      direction 0.000000 0.000000 1.000000
      length 3.937000
      axis 0.0 0.0 -90.0 xyz
      dof rx rz ry
   end
   begin
      id 16
      name RightShoulder
      direction -1.000000 0.000000 0.000000
      length 7.110130
      axis 0.0 0.0 90.0 xyz
      dof rx ry rz
   end
   begin
      id 17
      name RightArm
      direction -1.000000 0.000000 0.000000
      length 10.398341
      axis 0.0 0.0 90.0 xyz
      dof rx ry rz
   end
   begin
      id 18
      name RightForeArm
      direction -1.000000 0.000000 0.000000
      length 8.888997
      axis 0.0 0.0 90.0 xyz
      dof ry rz rx
   end
   begin
      id 19
      name RightHand
      direction 0.000000 0.000000 0.000000
      length 0.000000
      axis 0.0 0.0 90.0 xyz
      dof rx ry rz
   end
   begin
      id 20
      name RightHand_dum1
      direction 0.000000 0.000000 0.000000
      length 0.000000
      axis 0.0 0.0 90.0 xyz
   end
   begin
      id 21
      name RightHand_dum2
      direction -1.000000 0.000000 0.000000
      length 3.937000
      axis 0.0 0.0 90.0 xyz
   end
   begin
      id 22
      name RightHandThumb1
      direction 0.000000 0.000000 1.000000
      length 3.937000
      axis 0.0 0.0 90.0 xyz
      dof rx rz ry
   end
   begin
      id 23
      name LeftUpLeg
      direction 0.000000 -1.000000 0.000000
      length 15.510451
      axis 0.0 0.0 0.0 xyz
      dof rx ry rz
   end
   begin
      id 24
      name LeftLeg
      direction 0.000000 -1.000000 0.000000
      length 14.858061
      axis 0.0 0.0 0.0 xyz
      dof rx ry rz
   end
   begin
      id 25
      name LeftFoot
      direction 0.000000 -0.258819 0.965926
      length 5.128852
      axis 15.0 0.0 0.0 xyz
      dof rx ry rz
   end
   begin
      id 26
      name LeftToeBase
      direction 0.000000 0.000000 1.000000
      length 2.952750
      axis 0.0 0.0 0.0 xyz
      dof rx ry rz
   end
   begin
      id 27
      name RightUpLeg
      direction 0.000000 -1.000000 0.000000
      length 15.510451
      axis 0.0 0.0 0.0 xyz
      dof rx ry rz
   end
   begin
      id 28
      name RightLeg
      direction 0.000000 -1.000000 0.000000
      length 14.858061
      axis 0.0 0.0 0.0 xyz
      dof rx ry rz
   end
   begin
      id 29
      name RightFoot
      direction 0.000000 -0.258819 0.965926
      length 5.128852
      axis 15.0 0.0 0.0 xyz
      dof rx ry rz
   end
   begin
      id 30
      name RightToeBase
      direction 0.000000 0.000000 1.000000
      length 2.952750
      axis 0.0 0.0 0.0 xyz
      dof rx ry rz
   end
:hierarchy
   begin
      root Spine_dum LeftUpLeg_dum RightUpLeg_dum
      Spine_dum Spine
      LeftUpLeg_dum LeftUpLeg
      RightUpLeg_dum RightUpLeg
      Spine Spine_dum1 Spine_dum2 Spine_dum3
      Spine_dum1 Head
      Spine_dum2 LeftShoulder
      Spine_dum3 RightShoulder
      LeftShoulder LeftArm
      LeftArm LeftForeArm
      LeftForeArm LeftHand
      LeftHand LeftHand_dum1 LeftHand_dum2
      LeftHand_dum1 LeftHandThumb1
      RightShoulder RightArm
      RightArm RightForeArm
      RightForeArm RightHand
      RightHand RightHand_dum1 RightHand_dum2
      RightHand_dum1 RightHandThumb1
      LeftUpLeg LeftLeg
      LeftLeg LeftFoot
      LeftFoot LeftToeBase
      RightUpLeg RightLeg
      RightLeg RightFoot
      RightFoot RightToeBase
   end

# File created by Blade
# Date/Time:  Tue Jan 27 20:02:37 2015
# Frame Rate: 120.000 fps
#------------------------------------------------------
:FULLY-SPECIFIED
:DEGREES
1188
root 6.560106 32.883226 4.057807 5.808350 1.962296 -9.204258
Spine 0.117495 7.953213 5.709154
Head -9.933093 -9.317197 4.776518
LeftShoulder -13.937997 -2.050818 28.713410
LeftArm -7.503494 -10.312361 -82.514852
LeftForeArm -9.460877 0.000000 117.575115
LeftHand 12.865337 -0.000000 -5.828936
LeftHandThumb1 -26.253704 0.000000 33.147579
RightShoulder -19.400380 -15.299586 -21.403989
RightArm 12.273298 -21.196475 88.571204
RightForeArm -11.496823 -0.000000 12.931594
RightHand 17.271946 -0.000000 7.035841
RightHandThumb1 -24.326973 -0.000000 -32.862282
LeftUpLeg 0.856633 -0.428488 1.519848
LeftLeg -4.056075 -0.000000 0.000000
LeftFoot -13.775562 17.121481 -14.867720
LeftToeBase 18.798205 -0.000000 -0.000000
RightUpLeg -28.048744 -2.635670 18.622206
RightLeg 122.351685 -0.000000 -0.000000
RightFoot 30.522421 -27.647154 23.125038
RightToeBase 15.637057 -0.000000 -0.000000
1189
root 6.567524 32.870162 4.063035 5.594206 1.955495 -9.052904
Spine 0.243473 7.892069 5.559034
Head -9.480812 -9.320932 4.709042
LeftShoulder -13.916551 -2.015934 28.713129
LeftArm -7.451695 -10.234561 -82.547978
LeftForeArm -9.441761 -0.000000 117.636686
LeftHand 12.901813 -0.000000 -5.878877
LeftHandThumb1 -26.253704 0.000000 33.147579
RightShoulder -19.367911 -15.342697 -21.475996
RightArm 12.214094 -21.416147 88.603617
RightForeArm -11.400376 -0.000000 12.930559
RightHand 17.090491 -0.000000 7.014111
RightHandThumb1 -24.326973 -0.000000 -32.862282
LeftUpLeg 1.094969 -0.582378 1.363913
LeftLeg -4.058258 -0.000000 0.000000
LeftFoot -13.799469 17.193334 -14.936747
LeftToeBase 18.722835 -0.000000 -0.000000
RightUpLeg -28.379351 -2.434772 18.511961
RightLeg 122.226854 -0.000000 -0.000000
RightFoot 30.553320 -27.748270 22.887691
RightToeBase 16.194935 -0.000000 -0.000000
1190
root 6.575944 32.857313 4.067832 5.390023 1.913761 -8.892768
Spine 0.364360 7.881125 5.390524
Head -9.033615 -9.371732 4.611587
LeftShoulder -13.909856 -1.995020 28.735676
LeftArm -7.410462 -10.132342 -82.599872
LeftForeArm -9.314217 -0.000000 117.691190
LeftHand 12.870161 0.000000 -5.850787
LeftHandThumb1 -26.253704 0.000000 33.147579
RightShoulder -19.348920 -15.421774 -21.538173
RightArm 12.175373 -21.594764 88.652127
RightForeArm -11.448886 -0.000000 12.874173
RightHand 17.297473 -0.000000 6.962499
RightHandThumb1 -24.326973 -0.000000 -32.862282
LeftUpLeg 1.315848 -0.706266 1.187337
LeftLeg -4.039168 -0.000000 0.000000
LeftFoot -13.862186 17.293413 -15.024009
LeftToeBase 18.794714 -0.000000 -0.000000
RightUpLeg -28.783466 -2.186140 18.368161
RightLeg 122.027693 -0.000000 -0.000000
RightFoot 30.621906 -27.840040 22.559169
RightToeBase 16.808129 -0.000000 -0.000000
1191
root 6.584544 32.843495 4.068404 5.177665 1.845917 -8.722615
Spine 0.512449 7.944767 5.202892
Head -8.618097 -9.448778 4.540704
LeftShoulder -13.840734 -1.990769 28.765064
LeftArm -7.376076 -10.065297 -82.669031
LeftForeArm -9.215506 -0.000000 117.776888
LeftHand 12.827963 -0.000000 -5.916578
LeftHandThumb1 -26.253704 0.000000 33.147579
RightShoulder -19.388398 -15.467957 -21.572683
RightArm 12.086798 -21.696320 88.716517
RightForeArm -11.373840 -0.000000 12.912324
RightHand 16.963891 -0.000000 7.214364
RightHandThumb1 -24.326973 -0.000000 -32.862282
LeftUpLeg 1.521757 -0.751458 0.997494
LeftLeg -3.977220 -0.000000 0.000000
LeftFoot -13.932009 17.336847 -15.074026
LeftToeBase 18.828707 -0.000000 -0.000000
RightUpLeg -29.284886 -1.880461 18.209360
RightLeg 121.741022 -0.000000 -0.000000
RightFoot 30.788197 -27.734480 21.883357
RightToeBase 16.551250 -0.000000 -0.000000
1192
root 6.587647 32.829871 4.074328 4.894718 1.773431 -8.571943
Spine 0.715858 7.870657 5.029176
Head -8.137355 -9.404656 4.489191
LeftShoulder -13.888178 -1.938117 28.808397
LeftArm -7.338198 -9.990603 -82.718238
LeftForeArm -9.159592 -0.000000 117.836377
LeftHand 12.788026 -0.000000 -6.014941
LeftHandThumb1 -26.253704 0.000000 33.147579
RightShoulder -19.281434 -15.582136 -21.626265
RightArm 12.129000 -21.789889 88.793113
RightForeArm -11.527011 -0.000000 12.790365
RightHand 17.392325 -0.000000 7.121996
RightHandThumb1 -24.326973 -0.000000 -32.862282
LeftUpLeg 1.819759 -0.857800 0.832026
LeftLeg -3.938924 -0.000000 0.000000
LeftFoot -14.013103 17.451860 -15.157166
LeftToeBase 18.777858 -0.000000 -0.000000
RightUpLeg -29.765040 -1.517856 18.041711
RightLeg 121.310039 -0.000000 -0.000000
RightFoot 30.277715 -28.168917 21.979490
RightToeBase 18.388646 -0.000000 -0.000000
1193
root 6.592090 32.815752 4.079479 4.569228 1.680123 -8.420022
Spine 0.996413 7.936255 4.848832
Head -7.734347 -9.430102 4.485212
LeftShoulder -13.850478 -1.973368 28.862300
LeftArm -7.289588 -9.926822 -82.780643
LeftForeArm -9.043558 0.000000 117.906432
LeftHand 12.684785 -0.000000 -5.981687
LeftHandThumb1 -26.253704 0.000000 33.147579
RightShoulder -19.302521 -15.627567 -21.630836
RightArm 12.076490 -21.933807 88.843597
RightForeArm -11.518530 -0.000000 12.783144
RightHand 17.349612 0.000000 7.173052
RightHandThumb1 -24.326973 -0.000000 -32.862282
LeftUpLeg 2.121146 -0.845931 0.657746
LeftLeg -3.821920 -0.000000 0.000000
LeftFoot -14.143409 17.483542 -15.219135
LeftToeBase 18.833765 -0.000000 -0.000000
RightUpLeg -30.270111 -1.129521 17.861986
RightLeg 120.758627 -0.000000 -0.000000
RightFoot 30.160853 -28.262640 21.298756
RightToeBase 18.175068 -0.000000 -0.000000
1194
root 6.595394 32.800854 4.085243 4.181219 1.557878 -8.263437
Spine 1.348852 7.976588 4.673446
Head -7.301912 -9.405773 4.449493
LeftShoulder -13.831593 -1.944312 28.895550
LeftArm -7.186861 -9.874464 -82.837315
LeftForeArm -8.952346 0.000000 117.971722
LeftHand 12.631825 0.000000 -5.883617
LeftHandThumb1 -26.253704 0.000000 33.147579
RightShoulder -19.256707 -15.647393 -21.636257
RightArm 12.051646 -22.057439 88.875100
RightForeArm -11.441531 0.000000 12.760021
RightHand 17.163704 -0.000000 6.774266
RightHandThumb1 -24.326973 -0.000000 -32.862282
LeftUpLeg 2.493462 -0.874959 0.474691
LeftLeg -3.712888 -0.000000 0.000000
LeftFoot -14.289128 17.584874 -15.286222
LeftToeBase 18.879632 -0.000000 -0.000000
RightUpLeg -30.791044 -0.732768 17.663801
RightLeg 120.048227 -0.000000 -0.000000
RightFoot 30.124922 -28.242911 20.125888
RightToeBase 18.101387 -0.000000 -0.000000
1195
root 6.593770 32.787655 4.088466 3.782822 1.454784 -8.151349
Spine 1.723543 7.976984 4.546847
Head -6.893045 -9.384602 4.421557
LeftShoulder -13.861830 -1.880192 28.899138
LeftArm -7.017109 -9.801387 -82.857073
LeftForeArm -8.906416 -0.000000 118.027444
LeftHand 12.560211 -0.000000 -5.939971
LeftHandThumb1 -26.253704 0.000000 33.147579
RightShoulder -19.194820 -15.639249 -21.685675
RightArm 12.015762 -22.129475 88.961363
RightForeArm -11.419062 -0.000000 12.671128
RightHand 17.306529 -0.000000 7.174616
RightHandThumb1 -24.326973 -0.000000 -32.862282
LeftUpLeg 2.837684 -0.864058 0.344290
LeftLeg -3.544907 -0.000000 0.000000
LeftFoot -14.441639 17.623282 -15.324875
LeftToeBase 18.756973 -0.000000 -0.000000
RightUpLeg -31.351489 -0.306699 17.486935
RightLeg 119.147901 -0.000000 -0.000000
RightFoot 29.803851 -28.566985 19.683188
RightToeBase 17.609375 -0.000000 -0.000000
1196
root 6.596702 32.773775 4.094218 3.337264 1.332554 -7.998941
Spine 2.153742 8.033334 4.376158
Head -6.496328 -9.459411 4.419712
LeftShoulder -13.854686 -1.851501 28.925346
LeftArm -6.843659 -9.732361 -82.896111
LeftForeArm -8.813808 -0.000000 118.052192
LeftHand 12.615915 -0.000000 -6.111260
LeftHandThumb1 -26.253704 0.000000 33.147579
RightShoulder -19.216891 -15.702507 -21.645348
RightArm 12.124280 -22.330172 88.949188
RightForeArm -11.268266 -0.000000 12.567632
RightHand 17.145655 -0.000000 6.942025
RightHandThumb1 -24.326973 -0.000000 -32.862282
LeftUpLeg 3.243516 -0.781838 0.166058
LeftLeg -3.395347 -0.000000 0.000000
LeftFoot -14.583835 17.643102 -15.397203
LeftToeBase 18.848229 -0.000000 -0.000000
RightUpLeg -31.930604 0.094285 17.246703
RightLeg 118.112286 -0.000000 -0.000000
RightFoot 29.855771 -28.420611 18.256422
RightToeBase 16.099306 -0.000000 -0.000000
1197
root 6.595288 32.759004 4.098410 2.853916 1.156806 -7.858192
Spine 2.642466 8.105101 4.219961
Head -6.104308 -9.453584 4.396587
LeftShoulder -13.852054 -1.846274 28.973736
LeftArm -6.708523 -9.662725 -82.907754
LeftForeArm -8.746248 -0.000000 118.083422
LeftHand 12.577256 -0.000000 -6.127916
LeftHandThumb1 -26.253704 0.000000 33.147579
RightShoulder -19.191246 -15.788726 -21.645006
RightArm 12.245785 -22.489426 88.970251
RightForeArm -11.170669 -0.000000 12.469247
RightHand 17.442129 0.000000 6.920924
RightHandThumb1 -24.326973 -0.000000 -32.862282
LeftUpLeg 3.720450 -0.800665 -0.003461
LeftLeg -3.300738 -0.000000 0.000000
LeftFoot -14.764587 17.841436 -15.489199
LeftToeBase 18.919118 -0.000000 -0.000000
RightUpLeg -32.513581 0.602849 16.995217
RightLeg 116.908677 -0.000000 -0.000000
RightFoot 29.403439 -28.847165 17.518754
RightToeBase 15.965677 -0.000000 -0.000000
1198
root 6.592082 32.744011 4.103832 2.342340 0.986665 -7.731431
Spine 3.165901 8.183813 4.082903
Head -5.729607 -9.434165 4.391741
LeftShoulder -13.854568 -1.893829 29.036462
LeftArm -6.591264 -9.542964 -82.901286
LeftForeArm -8.731035 -0.000000 118.112644
LeftHand 12.339424 0.000000 -6.097679
LeftHandThumb1 -26.253704 0.000000 33.147579
RightShoulder -19.134708 -15.742375 -21.689026
RightArm 12.154333 -22.504358 89.107812
RightForeArm -11.323912 -0.000000 12.475405
RightHand 17.288340 -0.000000 7.210748
RightHandThumb1 -24.326973 -0.000000 -32.862282
LeftUpLeg 4.237840 -0.918705 -0.165703
LeftLeg -3.229997 -0.000000 0.000000
LeftFoot -14.925961 18.130048 -15.544711
LeftToeBase 18.817736 -0.000000 -0.000000
RightUpLeg -33.123821 1.092503 16.742406
RightLeg 115.539252 -0.000000 -0.000000
RightFoot 28.649362 -29.572094 17.301036
RightToeBase 16.114198 -0.000000 -0.000000
1199
root 6.587928 32.728901 4.109142 1.819910 0.803795 -7.615167
Spine 3.692340 8.287823 3.959814
Head -5.318814 -9.443676 4.373567
LeftShoulder -13.797456 -1.969304 29.106577
LeftArm -6.538103 -9.406435 -82.881942
LeftForeArm -8.592487 -0.000000 118.175416
LeftHand 12.178875 -0.000000 -5.759928
LeftHandThumb1 -26.253704 0.000000 33.147579
RightShoulder -19.106750 -15.674418 -21.728695
RightArm 12.081263 -22.679429 89.195821
RightForeArm -11.218635 0.000000 12.427158
RightHand 17.484265 -0.000000 6.725628
RightHandThumb1 -24.326973 -0.000000 -32.862282
LeftUpLeg 4.770018 -0.939463 -0.320727
LeftLeg -3.166954 -0.000000 0.000000
LeftFoot -15.095976 18.383207 -15.580577
LeftToeBase 18.777959 -0.000000 -0.000000
RightUpLeg -33.743654 1.572274 16.481419
RightLeg 113.985212 -0.000000 -0.000000
RightFoot 28.151660 -29.980918 16.401304
RightToeBase 15.961236 -0.000000 -0.000000
1200
root 6.586842 32.714269 4.111245 1.304564 0.658847 -7.501273
Spine 4.218995 8.296362 3.864844
Head -4.928346 -9.369593 4.306817
LeftShoulder -13.798882 -1.990785 29.159893
LeftArm -6.432785 -9.311818 -82.871905
LeftForeArm -8.654602 -0.000000 118.189099
LeftHand 12.229196 -0.000000 -5.779922
LeftHandThumb1 -26.253704 0.000000 33.147579
RightShoulder -19.053042 -15.726937 -21.741324
RightArm 12.174401 -22.806747 89.204609
RightForeArm -10.972034 -0.000000 12.448587
RightHand 17.276168 -0.000000 7.002957
RightHandThumb1 -24.326973 -0.000000 -32.862282
LeftUpLeg 5.295696 -0.931976 -0.471800
LeftLeg -3.134499 -0.000000 0.000000
LeftFoot -15.247772 18.586839 -15.633311
LeftToeBase 18.866893 -0.000000 -0.000000
RightUpLeg -34.387066 2.030886 16.196254
RightLeg 112.250511 -0.000000 -0.000000
RightFoot 27.662925 -30.359256 15.501642
RightToeBase 15.016726 -0.000000 -0.000000
